# xmcd
#
# Track frame offsets:
#	150
#	13607
#	32332
#	49135
#	64757
#	80297
#	98447
#	113410
#	125682
#	148072
#
# Disc length: 2181 seconds
#
# Revision: 0
# Processed by: cddbd v1.5.2PL0 Copyright (c) Steve Scherf et al.
# Submitted via: EasyCDDAExtractor 10.2.0.1
#
DISCID=7508830a
DTITLE=Various Artist - Capitol vol.19
DYEAR=2000
DGENRE=Gospel
TTITLE0=Dixie Melody Boys - Before Sunrise The Son Rose
TTITLE1=Hovie Lister - Grace Marches On
TTITLE2=Eddie Dietz - With His Last Breath
TTITLE3=Crystal River Boys - I Can Almost See Heaven
TTITLE4=Conrad Cook - Speak His Name
TTITLE5=Rogers Family - The Sunday After That
TTITLE6=Shannon Bunch - My God Will Remember Me
TTITLE7=New Desire - I'll Be Home With Jesus
TTITLE8=Kimberly - Woman Why Do You Weep
TTITLE9=Goug Smith - Oh, What A Moment
EXTD=
EXTT0=
EXTT1=
EXTT2=
EXTT3=
EXTT4=
EXTT5=
EXTT6=
EXTT7=
EXTT8=
EXTT9=
PLAYORDER=
